<svg width="24" height="24" viewBox="0 0 24 24" fill="none" xmlns="http://www.w3.org/2000/svg">
<g clip-path="url(#clip0_238_95)">
<path d="M12.0677 12.0295C14.2408 12.0295 16.0025 10.2793 16.0025 8.12024C16.0025 5.96119 14.2408 4.21094 12.0677 4.21094C9.8945 4.21094 8.13281 5.96119 8.13281 8.12024C8.13281 10.2793 9.8945 12.0295 12.0677 12.0295Z" stroke="#666666" stroke-width="1.5" stroke-linecap="round" stroke-linejoin="round"/>
<path fill-rule="evenodd" clip-rule="evenodd" d="M5.82814 17.4676C5.82708 17.1929 5.88894 16.9214 6.00905 16.6738C6.38595 15.9249 7.44881 15.528 8.33076 15.3483C8.96682 15.2134 9.61167 15.1233 10.2605 15.0786C11.4618 14.9738 12.6699 14.9738 13.8712 15.0786C14.52 15.1239 15.1648 15.2139 15.801 15.3483C16.6829 15.528 17.7457 15.8875 18.1227 16.6738C18.3642 17.1785 18.3642 17.7644 18.1227 18.269C17.7457 19.0553 16.6829 19.4148 15.801 19.587C15.1656 19.7275 14.5206 19.8201 13.8712 19.8642C12.8935 19.9465 11.9112 19.9615 10.9314 19.9091C10.7052 19.9091 10.4866 19.9091 10.2605 19.8642C9.61358 19.8207 8.97097 19.728 8.3383 19.587C7.44881 19.4148 6.39349 19.0553 6.00905 18.269C5.88956 18.0186 5.82775 17.7448 5.82814 17.4676Z" stroke="#666666" stroke-width="1.5" stroke-linecap="round" stroke-linejoin="round"/>
</g>
<defs>
<clipPath id="clip0_238_95">
<rect width="14" height="18" fill="white" transform="translate(5 3)"/>
</clipPath>
</defs>
</svg>
